<svg xmlns="http://www.w3.org/2000/svg" viewBox="0 0 24 24" id="codacy"><path d="M9.915 4.721a.502.502 0 0 1-.483-.371l-.798-2.98a.498.498 0 0 1 .092-.928A12.038 12.038 0 0 1 11.967 0c.276 0 .526.224.526.5v3.45a.5.5 0 0 1-.5.5c-.69 0-1.353.087-1.944.253a.509.509 0 0 1-.134.018zm-.278-3.474.635 2.374a8.245 8.245 0 0 1 1.222-.158V1.011a11.07 11.07 0 0 0-1.857.236zm-5.415 9.166a.489.489 0 0 1-.13-.017L.761 9.502a.5.5 0 0 1-.358-.598l.024-.099c.837-3.028 2.813-5.583 5.565-7.196a.499.499 0 0 1 .686.181l1.728 2.987a.502.502 0 0 1-.198.692 7.675 7.675 0 0 0-3.505 4.578.5.5 0 0 1-.481.366zM1.511 8.668l2.375.637a8.636 8.636 0 0 1 3.411-4.449L6.069 2.735C3.886 4.146 2.287 6.226 1.511 8.668zm21.584 6.923a.489.489 0 0 1-.13-.017l-3.11-.834a.5.5 0 0 1-.598-.601l.006-.026c.186-.664.28-1.353.28-2.049 0-.663-.085-1.324-.246-1.914a.498.498 0 0 1 .353-.615l3.339-.893a.502.502 0 0 1 .613.356A12.07 12.07 0 0 1 24 12.06c0 1.09-.146 2.186-.424 3.167a.5.5 0 0 1-.481.364zm-2.736-1.751 2.376.637a11.024 11.024 0 0 0 .016-4.735l-2.374.635a8.612 8.612 0 0 1-.018 3.463zM3.86 20.628a.502.502 0 0 1-.354-.146 12.032 12.032 0 0 1-1.899-2.477.5.5 0 0 1 .181-.685l2.989-1.728a.502.502 0 0 1 .689.194 7.745 7.745 0 0 0 1.194 1.551.5.5 0 0 1-.001.707l-2.447 2.438a.493.493 0 0 1-.352.146zm-1.128-2.699c.343.535.719 1.026 1.137 1.484l1.741-1.734a8.919 8.919 0 0 1-.753-.978l-2.125 1.228zm16.227-9.448a.498.498 0 0 1-.443-.268 7.655 7.655 0 0 0-4.564-3.508.501.501 0 0 1-.349-.611l.892-3.332a.5.5 0 0 1 .598-.357l.099.024c3.022.838 5.574 2.818 7.185 5.573a.5.5 0 0 1-.181.685l-2.987 1.726a.492.492 0 0 1-.25.068zm-4.264-4.592a8.623 8.623 0 0 1 4.437 3.415l2.12-1.225c-1.408-2.186-3.484-3.787-5.921-4.564l-.636 2.374zm.273 19.722a.502.502 0 0 1-.483-.371l-.892-3.335a.5.5 0 0 1 .365-.615l.231.456-.137-.479c1.875-.535 3.463-1.773 4.473-3.486a.502.502 0 0 1 .681-.179l2.985 1.726a.502.502 0 0 1 .188.676 12.103 12.103 0 0 1-7.279 5.59.537.537 0 0 1-.132.017zm-.283-3.493.633 2.367a11.056 11.056 0 0 0 5.931-4.547l-2.125-1.229a8.595 8.595 0 0 1-4.439 3.409zM11.983 24c-2.167 0-4.221-.557-5.993-1.609a.501.501 0 0 1-.178-.68l1.584-2.747a.5.5 0 0 1 .746-.468l-.044.097.054-.091.015.009.038.02c.021.011.04.023.058.036a7.439 7.439 0 0 0 3.703.984c.276 0 .518.224.518.5v3.45a.501.501 0 0 1-.501.499zm-5.052-2.227a10.633 10.633 0 0 0 4.552 1.218v-2.455a8.45 8.45 0 0 1-3.325-.89l-1.227 2.127zm-6.04-6.3a.5.5 0 0 1-.483-.371A12.05 12.05 0 0 1 0 12.006a.507.507 0 0 1 .5-.506l3.447.001a.5.5 0 0 1 .5.5c0 .696.087 1.356.253 1.946a.502.502 0 0 1-.352.618l-3.328.891a.471.471 0 0 1-.129.017zm.121-2.973c.028.623.11 1.244.244 1.858l2.362-.632a8.303 8.303 0 0 1-.158-1.225L1.012 12.5z"></path></svg>